# xmcd CD database file
#
# Track frame offsets:
#	150
#	20627
#	38564
#
# Disc length: 756 seconds
#
# Revision: 4
# Processed by: cddbd v1.5.2PL0 Copyright (c) Steve Scherf et al.
# Submitted via: CDex 1.51
#
DISCID=1a02f203
DTITLE=Lonestar - Amazed
DYEAR=1999
DGENRE=Country
TTITLE0=Amazed (Captain Mix)
TTITLE1=Amazed (Huff Mix)
TTITLE2=Amazed (Acoustic Version)
EXTD=YEAR: 1999
EXTT0=
EXTT1=
EXTT2=
PLAYORDER=
